<svg width="139" height="52" viewBox="0 0 139 52" fill="none" xmlns="http://www.w3.org/2000/svg">
<path fill-rule="evenodd" clip-rule="evenodd" d="M30.4523 4.23657C27.0957 0.879887 21.6534 0.87988 18.2967 4.23657L2.51752 20.0158C-0.839168 23.3724 -0.839175 28.8147 2.51751 32.1714L18.2967 47.9506C21.6534 51.3073 27.0957 51.3073 30.4523 47.9506L46.2315 32.1714C49.5882 28.8147 49.5882 23.3725 46.2315 20.0158L30.4523 4.23657ZM24.3745 37.6973C30.7831 37.6973 35.9782 32.5021 35.9782 26.0936C35.9782 19.685 30.7831 14.4899 24.3745 14.4899C17.966 14.4899 12.7708 19.685 12.7708 26.0936C12.7708 32.5021 17.966 37.6973 24.3745 37.6973Z" fill="white" fill-opacity="0.7"/>
<circle cx="24.4967" cy="26.2158" r="7.7358" stroke="white" stroke-opacity="0.5" stroke-width="2.5786"/>
<circle cx="24.4967" cy="26.2157" r="3.8679" fill="white" fill-opacity="0.8"/>
<path d="M58.6483 22H68.7869V19.3848H61.8203V15.8026H68.2375V13.1873H61.8203V9.61247H68.7576V6.99724H58.6483V22ZM75.201 6.99724H72.0803V22H75.201V6.99724ZM83.6883 22.2198C86.472 22.2198 88.3474 20.8645 88.7869 18.7768L85.9006 18.5863C85.5856 19.4434 84.7798 19.8902 83.7396 19.8902C82.1793 19.8902 81.1903 18.8573 81.1903 17.1798V17.1725H88.8528V16.3154C88.8528 12.4914 86.538 10.6014 83.5638 10.6014C80.2526 10.6014 78.1062 12.9529 78.1062 16.4252C78.1062 19.9928 80.2233 22.2198 83.6883 22.2198ZM81.1903 15.2385C81.2562 13.9565 82.2305 12.9309 83.6151 12.9309C84.9703 12.9309 85.908 13.8979 85.9153 15.2385H81.1903ZM96.8182 26.4539C100.034 26.4539 102.32 24.9888 102.32 22.1099V10.7479H99.221V12.6379H99.1038C98.6862 11.7222 97.7705 10.6014 95.8878 10.6014C93.4191 10.6014 91.3313 12.5207 91.3313 16.352C91.3313 20.0954 93.3605 21.8388 95.8952 21.8388C97.6899 21.8388 98.6935 20.9378 99.1038 20.0074H99.2356V22.0659C99.2356 23.6116 98.2467 24.2123 96.8914 24.2123C95.5142 24.2123 94.8183 23.6116 94.5619 22.9303L91.6756 23.3186C92.0492 25.0914 93.7854 26.4539 96.8182 26.4539ZM96.8841 19.4947C95.3531 19.4947 94.5179 18.2786 94.5179 16.3373C94.5179 14.4254 95.3384 13.0848 96.8841 13.0848C98.4005 13.0848 99.2503 14.3668 99.2503 16.3373C99.2503 18.3226 98.3858 19.4947 96.8841 19.4947ZM108.871 22.2124C110.534 22.2124 111.611 21.4872 112.16 20.4397H112.248V22H115.208V14.4107C115.208 11.7296 112.937 10.6014 110.432 10.6014C107.736 10.6014 105.963 11.8907 105.531 13.9419L108.417 14.1763C108.629 13.4291 109.296 12.8797 110.417 12.8797C111.479 12.8797 112.087 13.4144 112.087 14.3375V14.3814C112.087 15.1066 111.318 15.2019 109.362 15.3923C107.135 15.5975 105.135 16.3447 105.135 18.8573C105.135 21.0843 106.725 22.2124 108.871 22.2124ZM109.765 20.0587C108.805 20.0587 108.117 19.6119 108.117 18.7548C108.117 17.8757 108.842 17.4435 109.941 17.2897C110.622 17.1944 111.735 17.0333 112.109 16.7842V17.9783C112.109 19.1577 111.135 20.0587 109.765 20.0587ZM121.609 15.4949C121.616 14.0444 122.481 13.1947 123.741 13.1947C124.994 13.1947 125.748 14.0151 125.741 15.3923V22H128.861V14.8356C128.861 12.213 127.323 10.6014 124.979 10.6014C123.309 10.6014 122.1 11.4219 121.594 12.7332H121.463V10.7479H118.488V22H121.609V15.4949ZM138.166 10.7479H136.048V8.05212H132.928V10.7479H131.389V13.0921H132.928V18.9526C132.913 21.1576 134.415 22.2491 136.678 22.1538C137.484 22.1245 138.056 21.9634 138.371 21.8608L137.88 19.5386C137.726 19.5679 137.396 19.6412 137.103 19.6412C136.481 19.6412 136.048 19.4067 136.048 18.5423V13.0921H138.166V10.7479Z" fill="white"/>
<path d="M61.139 41.3478C63.8055 41.3478 65.3482 39.6941 65.3482 36.9592C65.3482 34.2372 63.8055 32.5962 61.2287 32.5962H58.3058V41.3478H61.139ZM59.6263 40.1941V33.75H61.1476C63.062 33.75 64.0491 34.8952 64.0491 36.9592C64.0491 39.0317 63.062 40.1941 61.0664 40.1941H59.6263ZM69.6573 41.4931C70.7427 41.4931 71.3537 40.9419 71.5973 40.4505H71.6486V41.3478H72.8964V36.9891C72.8964 35.079 71.3922 34.6987 70.3495 34.6987C69.1616 34.6987 68.0676 35.1773 67.6403 36.3738L68.8411 36.6473C69.0291 36.1815 69.5077 35.7328 70.3666 35.7328C71.1914 35.7328 71.6144 36.1644 71.6144 36.9079V36.9378C71.6144 37.4036 71.1358 37.3951 69.9564 37.5318C68.7129 37.6771 67.4394 38.0019 67.4394 39.4933C67.4394 40.7838 68.4095 41.4931 69.6573 41.4931ZM69.935 40.4676C69.2128 40.4676 68.6915 40.1428 68.6915 39.5103C68.6915 38.8266 69.2983 38.583 70.0376 38.4848C70.4521 38.4292 71.4349 38.3181 71.6187 38.1344V38.9805C71.6187 39.7582 70.9991 40.4676 69.935 40.4676ZM80.3762 36.3866C80.1113 35.3653 79.3122 34.6987 77.8935 34.6987C76.4107 34.6987 75.3595 35.4807 75.3595 36.643C75.3595 37.5746 75.9235 38.1942 77.1542 38.4677L78.2653 38.7112C78.8977 38.8523 79.1926 39.1343 79.1926 39.5445C79.1926 40.053 78.6499 40.4505 77.8123 40.4505C77.0474 40.4505 76.556 40.1214 76.4021 39.4762L75.1672 39.6642C75.3808 40.8265 76.3466 41.4803 77.8208 41.4803C79.4062 41.4803 80.5044 40.6385 80.5044 39.4505C80.5044 38.5232 79.9147 37.9506 78.7097 37.6728L77.667 37.4335C76.9448 37.2626 76.6329 37.019 76.6372 36.5746C76.6329 36.0704 77.1799 35.7114 77.9063 35.7114C78.7011 35.7114 79.0686 36.1516 79.2182 36.5917L80.3762 36.3866ZM84.0465 37.4506C84.0465 36.4037 84.7089 35.8054 85.6191 35.8054C86.4994 35.8054 87.025 36.3652 87.025 37.3267V41.3478H88.3027V37.1729C88.3027 35.5362 87.4053 34.6987 86.0549 34.6987C85.0336 34.6987 84.4183 35.1431 84.1106 35.8524H84.0294V32.5962H82.7688V41.3478H84.0465V37.4506ZM90.9698 41.3478H92.2176V40.3265H92.3244C92.5552 40.7453 93.0252 41.476 94.2217 41.476C95.8114 41.476 96.9651 40.2026 96.9651 38.0788C96.9651 35.9507 95.7943 34.6987 94.2089 34.6987C92.991 34.6987 92.5509 35.4422 92.3244 35.8482H92.2475V32.5962H90.9698V41.3478ZM92.2218 38.066C92.2218 36.6943 92.8201 35.7841 93.9354 35.7841C95.0935 35.7841 95.6746 36.7626 95.6746 38.066C95.6746 39.3821 95.0764 40.3864 93.9354 40.3864C92.8372 40.3864 92.2218 39.4462 92.2218 38.066ZM102.024 41.4803C103.875 41.4803 105.084 40.1257 105.084 38.0959C105.084 36.0533 103.875 34.6987 102.024 34.6987C100.174 34.6987 98.9646 36.0533 98.9646 38.0959C98.9646 40.1257 100.174 41.4803 102.024 41.4803ZM102.028 40.4077C100.819 40.4077 100.255 39.3522 100.255 38.0916C100.255 36.8353 100.819 35.767 102.028 35.767C103.229 35.767 103.793 36.8353 103.793 38.0916C103.793 39.3522 103.229 40.4077 102.028 40.4077ZM109.28 41.4931C110.365 41.4931 110.976 40.9419 111.22 40.4505H111.271V41.3478H112.519V36.9891C112.519 35.079 111.015 34.6987 109.972 34.6987C108.784 34.6987 107.69 35.1773 107.263 36.3738L108.464 36.6473C108.652 36.1815 109.13 35.7328 109.989 35.7328C110.814 35.7328 111.237 36.1644 111.237 36.9079V36.9378C111.237 37.4036 110.758 37.3951 109.579 37.5318C108.335 37.6771 107.062 38.0019 107.062 39.4933C107.062 40.7838 108.032 41.4931 109.28 41.4931ZM109.557 40.4676C108.835 40.4676 108.314 40.1428 108.314 39.5103C108.314 38.8266 108.921 38.583 109.66 38.4848C110.075 38.4292 111.057 38.3181 111.241 38.1344V38.9805C111.241 39.7582 110.622 40.4676 109.557 40.4676ZM115.08 41.3478H116.358V37.3395C116.358 36.4806 117.02 35.861 117.926 35.861C118.191 35.861 118.49 35.908 118.593 35.9379V34.7158C118.465 34.6987 118.212 34.6858 118.05 34.6858C117.281 34.6858 116.623 35.1217 116.384 35.8268H116.315V34.7841H115.08V41.3478ZM122.78 41.476C123.977 41.476 124.447 40.7453 124.677 40.3265H124.784V41.3478H126.032V32.5962H124.754V35.8482H124.677C124.447 35.4422 124.011 34.6987 122.789 34.6987C121.203 34.6987 120.037 35.9507 120.037 38.0788C120.037 40.2026 121.186 41.476 122.78 41.476ZM123.062 40.3864C121.921 40.3864 121.327 39.3821 121.327 38.066C121.327 36.7626 121.908 35.7841 123.062 35.7841C124.177 35.7841 124.776 36.6943 124.776 38.066C124.776 39.4462 124.165 40.3864 123.062 40.3864Z" fill="white" fill-opacity="0.7"/>
</svg>
