<svg width="24" height="24" viewBox="0 0 24 24" fill="none" xmlns="http://www.w3.org/2000/svg">
<path opacity="0.4" d="M1.99991 7.9159V16.0839C1.99991 19.6229 4.27591 21.9999 7.66491 21.9999H16.3349C19.7239 21.9999 21.9999 19.6229 21.9999 16.0839V7.9159C21.9999 4.3779 19.7229 1.9999 16.3339 1.9999H7.66491C4.27591 1.9999 1.99991 4.3779 1.99991 7.9159Z" fill="white" fill-opacity="0.5"/>
<path d="M7.72063 12.8554L11.4686 16.6204C11.7506 16.9034 12.2496 16.9034 12.5326 16.6204L16.2806 12.8554C16.5726 12.5614 16.5716 12.0864 16.2776 11.7944C15.9836 11.5024 15.5096 11.5024 15.2166 11.7964L12.7496 14.2734V7.9184C12.7496 7.5034 12.4136 7.1684 11.9996 7.1684C11.5856 7.1684 11.2496 7.5034 11.2496 7.9184V14.2734L8.78363 11.7964C8.63663 11.6494 8.44463 11.5764 8.25163 11.5764C8.06063 11.5764 7.86863 11.6494 7.72263 11.7944C7.42963 12.0864 7.42863 12.5614 7.72063 12.8554Z" fill="white" fill-opacity="0.5"/>
</svg>
