<svg width="150" height="143" viewBox="0 0 150 143" fill="none" xmlns="http://www.w3.org/2000/svg">
<path d="M66.2654 0.859995C66.2654 0.859995 48.2154 1.97 40.8454 18.43C33.3054 35.27 38.3554 44.77 28.6054 54.42C18.8554 64.07 15.8154 77.49 26.5454 85.56C39.3154 95.17 54.6454 84.04 66.8254 88.9C95.5454 100.37 130.195 86.35 122.385 65.23C118.655 55.14 111.845 58.32 108.365 30.68C106.235 13.68 93.9354 -2.81001 66.2654 0.859995Z" fill="#19274B"/>
<path d="M149.225 142.27H0.205322C0.205322 142.27 2.20533 132.79 5.05533 123.27C7.90533 113.75 13.7953 109.76 21.4253 107.81C23.5753 107.26 27.5153 106.11 32.0653 104.76C34.6353 103.99 37.4153 103.15 40.1653 102.32C49.7653 99.4 59.1353 96.49 59.1353 96.49L74.6353 95.25L74.7253 95.24L74.8153 95.25L88.7953 96.37C88.7953 96.37 97.2053 98.89 106.385 101.61C115.005 104.15 124.315 106.87 128.005 107.82C135.635 109.78 141.525 113.76 144.375 123.28C147.225 132.8 149.225 142.27 149.225 142.27Z" fill="#FFAC32"/>
<path d="M34.7653 128.91C34.4453 133.42 33.7253 137.84 31.4053 142.27H0.215332C0.215332 142.27 2.21534 132.79 5.06534 123.27C7.91534 113.75 13.8053 109.76 21.4353 107.81C23.5853 107.26 27.5253 106.11 32.0753 104.76C34.2353 110.16 35.3553 120.54 34.7653 128.91Z" fill="#FF8881"/>
<path d="M114.675 128.91C114.995 133.42 115.715 137.84 118.035 142.27H149.225C149.225 142.27 147.225 132.79 144.375 123.27C141.525 113.75 135.635 109.76 128.005 107.81C125.855 107.26 121.915 106.11 117.365 104.76C115.205 110.16 114.085 120.54 114.675 128.91Z" fill="#FF8881"/>
<path d="M106.385 101.6C104.405 112.24 97.6453 132.62 74.8853 133.67C49.6553 134.83 42.0853 111.04 40.1653 102.31C49.7653 99.39 59.1353 96.48 59.1353 96.48L74.6353 95.24L74.7253 95.23L74.8153 95.24L88.7953 96.36C88.7953 96.36 97.1953 98.89 106.385 101.6Z" fill="#FF8881"/>
<path d="M74.8054 116.35C64.7154 116.35 58.9154 111.26 55.8154 106.99C52.4854 102.4 51.5354 97.85 51.5054 97.66C51.3954 97.1 51.7554 96.56 52.3054 96.45C52.8654 96.34 53.4054 96.7 53.5154 97.25C53.5354 97.34 54.4454 101.63 57.5254 105.85C61.6154 111.46 67.4354 114.3 74.8054 114.3C82.1754 114.3 87.6754 111.46 91.1354 105.85C93.7454 101.64 94.1754 97.4 94.1754 97.36C94.2254 96.8 94.7354 96.38 95.2954 96.44C95.8554 96.49 96.2754 96.99 96.2154 97.56C96.1954 97.75 95.7354 102.32 92.8754 106.94C90.2254 111.22 84.9354 116.35 74.8054 116.35Z" fill="#F5EFFF"/>
<path d="M74.8053 95.23V95.24H74.7253L74.8053 95.23Z" fill="#5D46C2"/>
<path d="M74.7254 95.24H74.6354V95.23L74.7254 95.24Z" fill="#5D46C2"/>
<path d="M88.5454 100.16C88.5454 100.16 84.6855 107.38 73.9055 107.38C63.4855 107.38 59.1055 99.8 59.1055 99.8L59.7455 94.61L59.8555 93.74L60.8555 85.56L86.6355 86.28L87.0655 89.39L87.2054 90.41L88.5454 100.16Z" fill="#FF8881"/>
<path d="M87.0455 89.39C81.2055 94.34 71.7555 96.22 59.7355 94.61L59.8455 93.74L60.8455 85.56L86.6255 86.28L87.0455 89.39Z" fill="#19274B"/>
<path d="M51.1654 64.28C45.3954 72.33 32.9854 66.89 33.8254 56.21C34.5954 46.52 45.4154 48.06 45.4154 48.06L51.1654 64.28Z" fill="#F55B5D"/>
<path d="M47.8454 65.41C51.9854 67.1 54.9054 71.16 54.9054 75.9C54.9054 82.14 49.8254 87.22 43.5854 87.22C37.3454 87.22 32.2654 82.14 32.2654 75.9C32.2654 70.63 35.8854 66.19 40.7754 64.93C41.5054 64.74 42.2754 64.62 43.0554 64.59C43.1754 64.96 43.2654 65.34 43.2954 65.74C42.8254 65.75 42.3554 65.8 41.8954 65.88C37.0854 66.68 33.4054 70.87 33.4054 75.9C33.4054 81.51 37.9654 86.07 43.5754 86.07C49.1854 86.07 53.7454 81.51 53.7454 75.9C53.7454 71.88 51.3954 68.4 48.0054 66.75L47.8454 65.41Z" fill="#F5EFFF"/>
<path d="M45.8554 64.49C45.5054 64.49 45.1954 64.25 45.1054 63.9C43.9754 59.31 39.2154 55.03 39.1754 54.99C38.8554 54.71 38.8254 54.22 39.1154 53.9C39.3954 53.58 39.8854 53.55 40.2054 53.84C40.4154 54.03 45.3754 58.48 46.6154 63.53C46.7154 63.94 46.4654 64.36 46.0554 64.46C45.9754 64.48 45.9154 64.49 45.8554 64.49Z" fill="#D1373F"/>
<path d="M43.8754 60.13C43.7954 60.13 43.7154 60.12 43.6354 60.09C41.5254 59.38 39.5154 59.81 39.4954 59.82C39.0854 59.91 38.6754 59.65 38.5754 59.24C38.4854 58.83 38.7454 58.42 39.1554 58.32C39.2554 58.3 41.5954 57.79 44.1254 58.64C44.5254 58.77 44.7454 59.21 44.6154 59.61C44.4954 59.93 44.1954 60.13 43.8754 60.13Z" fill="#D1373F"/>
<path d="M93.8555 64.28C99.6255 72.33 112.035 66.89 111.195 56.21C110.425 46.52 99.6055 48.06 99.6055 48.06L93.8555 64.28Z" fill="#F55B5D"/>
<path d="M98.5754 65.41C94.4354 67.1 91.5154 71.16 91.5154 75.9C91.5154 82.14 96.5954 87.22 102.835 87.22C109.075 87.22 114.155 82.14 114.155 75.9C114.155 70.63 110.535 66.19 105.645 64.93C104.915 64.74 104.145 64.62 103.365 64.59C103.245 64.96 103.155 65.34 103.125 65.74C103.595 65.75 104.065 65.8 104.525 65.88C109.335 66.68 113.015 70.87 113.015 75.9C113.015 81.51 108.455 86.07 102.845 86.07C97.2354 86.07 92.6754 81.51 92.6754 75.9C92.6754 71.88 95.0254 68.4 98.4154 66.75L98.5754 65.41Z" fill="#F5EFFF"/>
<path d="M99.1655 64.49C99.1055 64.49 99.0454 64.48 98.9854 64.47C98.5754 64.37 98.3154 63.95 98.4254 63.54C99.6654 58.49 104.625 54.03 104.835 53.85C105.155 53.57 105.635 53.6 105.925 53.91C106.205 54.23 106.175 54.71 105.865 55C105.815 55.04 101.055 59.32 99.9355 63.91C99.8255 64.25 99.5055 64.49 99.1655 64.49Z" fill="#D1373F"/>
<path d="M101.145 60.13C100.825 60.13 100.525 59.93 100.415 59.6C100.285 59.2 100.495 58.76 100.905 58.63C103.435 57.78 105.775 58.29 105.875 58.31C106.285 58.4 106.555 58.81 106.455 59.23C106.365 59.64 105.955 59.9 105.535 59.81C105.505 59.8 103.495 59.38 101.395 60.08C101.315 60.12 101.225 60.13 101.145 60.13Z" fill="#D1373F"/>
<path d="M43.1254 36.29C43.1254 36.29 40.3054 53.75 47.6054 70.83C54.2154 86.31 63.0154 91.13 72.3854 91.28C83.0354 91.45 105.335 85.29 101.805 34.76C99.4154 0.619989 45.9454 1.81999 43.1254 36.29Z" fill="#FF8881"/>
<path d="M101.145 38.07C86.7454 38.44 76.6854 34.59 70.2154 30.65C72.8554 34.28 77.3354 36.58 77.3354 36.58C68.0554 38.95 62.0454 30.13 59.4754 25.15C52.6154 35.85 42.7754 40.95 42.7754 40.95C36.8154 4.60999 62.3854 1.58999 83.1454 3.55999C102.545 5.40999 112.235 37.78 101.145 38.07Z" fill="#19274B"/>
<path d="M50.9554 33.85C50.9554 33.85 45.8554 43.96 47.5354 54.42C49.1554 64.51 48.4254 74.2 43.4454 75.91C43.4454 75.91 46.8254 71.07 43.7454 62.74C40.6654 54.41 39.8454 43.37 41.8954 38.27C43.9454 33.17 50.9554 33.85 50.9554 33.85Z" fill="#19274B"/>
<path d="M94.8154 33.85C94.8154 33.85 99.9154 43.96 98.2354 54.42C96.6154 64.51 97.3454 74.2 102.325 75.91C102.325 75.91 98.9454 71.07 102.025 62.74C105.105 54.41 105.925 43.37 103.875 38.27C101.825 33.17 94.8154 33.85 94.8154 33.85Z" fill="#19274B"/>
<path d="M53.0654 45.14C53.0654 45.14 57.1454 39.46 64.1754 38.73C65.3154 38.61 66.3254 39.49 66.3954 40.63V40.65C66.4654 41.81 65.5454 42.79 64.3854 42.81C61.7454 42.84 57.1154 43.22 53.0654 45.14Z" fill="#19274B"/>
<path d="M92.5054 45.14C92.5054 45.14 88.4254 39.46 81.3954 38.73C80.2554 38.61 79.2454 39.49 79.1754 40.63V40.65C79.1054 41.81 80.0254 42.79 81.1854 42.81C83.8254 42.84 88.4654 43.22 92.5054 45.14Z" fill="#19274B"/>
<path d="M73.7053 82.22C71.5153 82.22 69.7753 81.45 69.6653 81.4C69.3453 81.25 69.1953 80.87 69.3453 80.55C69.4953 80.23 69.8653 80.08 70.1953 80.23C70.2553 80.25 74.2053 81.98 77.3653 79.9C77.6653 79.71 78.0553 79.79 78.2553 80.08C78.4453 80.38 78.3653 80.77 78.0753 80.97C76.6153 81.92 75.0753 82.22 73.7053 82.22Z" fill="#F55B5D"/>
<path d="M75.9754 65.88C75.9554 65.88 75.9453 65.88 75.9253 65.88L71.2353 65.5C70.8853 65.47 70.6153 65.16 70.6453 64.81C70.6753 64.46 70.9853 64.19 71.3353 64.22L75.2554 64.54L74.0354 52.62C73.9954 52.27 74.2554 51.95 74.6054 51.92C74.9554 51.88 75.2753 52.14 75.3053 52.49L76.6054 65.17C76.6254 65.36 76.5553 65.55 76.4253 65.68C76.3153 65.81 76.1454 65.88 75.9754 65.88Z" fill="#F55B5D"/>
<path d="M63.6454 70.99C69.4154 71.89 75.2854 72.28 83.1454 70.72C83.1454 70.72 82.4654 79.12 73.1354 79.15C65.1954 79.18 63.6454 70.99 63.6454 70.99Z" fill="#F5EFFF"/>
<path d="M63.1854 52.55C63.1854 54.77 62.1754 56.58 60.9254 56.58C59.6754 56.58 58.6654 54.78 58.6654 52.55C58.6654 50.33 59.6754 48.52 60.9254 48.52C62.1754 48.52 63.1854 50.33 63.1854 52.55Z" fill="#19274B"/>
<path d="M87.1954 52.55C87.1954 54.77 86.1854 56.58 84.9354 56.58C83.6854 56.58 82.6754 54.78 82.6754 52.55C82.6754 50.33 83.6854 48.52 84.9354 48.52C86.1754 48.52 87.1954 50.33 87.1954 52.55Z" fill="#19274B"/>
<path d="M54.9354 60.81C54.9354 61.19 54.6254 61.5 54.2454 61.5C53.8654 61.5 53.5554 61.19 53.5554 60.81C53.5554 60.43 53.8654 60.12 54.2454 60.12C54.6254 60.11 54.9354 60.42 54.9354 60.81Z" fill="#F55B5D"/>
<path d="M58.3154 62.48C58.3154 62.86 58.0054 63.17 57.6254 63.17C57.2454 63.17 56.9354 62.86 56.9354 62.48C56.9354 62.1 57.2454 61.79 57.6254 61.79C58.0054 61.79 58.3154 62.1 58.3154 62.48Z" fill="#F55B5D"/>
<path d="M54.9354 64.88C54.9354 65.26 54.6254 65.57 54.2454 65.57C53.8654 65.57 53.5554 65.26 53.5554 64.88C53.5554 64.5 53.8654 64.19 54.2454 64.19C54.6254 64.19 54.9354 64.5 54.9354 64.88Z" fill="#F55B5D"/>
<path d="M59.5555 66.27C59.9366 66.27 60.2455 65.9611 60.2455 65.58C60.2455 65.1989 59.9366 64.89 59.5555 64.89C59.1744 64.89 58.8655 65.1989 58.8655 65.58C58.8655 65.9611 59.1744 66.27 59.5555 66.27Z" fill="#F55B5D"/>
<path d="M63.0954 65.57C63.4765 65.57 63.7854 65.2611 63.7854 64.88C63.7854 64.4989 63.4765 64.19 63.0954 64.19C62.7143 64.19 62.4054 64.4989 62.4054 64.88C62.4054 65.2611 62.7143 65.57 63.0954 65.57Z" fill="#F55B5D"/>
<path d="M62.1754 61.5C62.1754 61.88 61.8654 62.19 61.4854 62.19C61.1054 62.19 60.7954 61.88 60.7954 61.5C60.7954 61.12 61.1054 60.81 61.4854 60.81C61.8654 60.81 62.1754 61.12 62.1754 61.5Z" fill="#F55B5D"/>
<path d="M92.9754 61.5C93.3565 61.5 93.6654 61.1911 93.6654 60.81C93.6654 60.4289 93.3565 60.12 92.9754 60.12C92.5943 60.12 92.2854 60.4289 92.2854 60.81C92.2854 61.1911 92.5943 61.5 92.9754 61.5Z" fill="#F55B5D"/>
<path d="M89.5954 63.17C89.9765 63.17 90.2854 62.8611 90.2854 62.48C90.2854 62.0989 89.9765 61.79 89.5954 61.79C89.2143 61.79 88.9054 62.0989 88.9054 62.48C88.9054 62.8611 89.2143 63.17 89.5954 63.17Z" fill="#F55B5D"/>
<path d="M92.9754 65.57C93.3565 65.57 93.6654 65.2611 93.6654 64.88C93.6654 64.4989 93.3565 64.19 92.9754 64.19C92.5943 64.19 92.2854 64.4989 92.2854 64.88C92.2854 65.2611 92.5943 65.57 92.9754 65.57Z" fill="#F55B5D"/>
<path d="M87.6555 66.27C88.0365 66.27 88.3455 65.9611 88.3455 65.58C88.3455 65.1989 88.0365 64.89 87.6555 64.89C87.2744 64.89 86.9655 65.1989 86.9655 65.58C86.9655 65.9611 87.2744 66.27 87.6555 66.27Z" fill="#F55B5D"/>
<path d="M83.4254 64.88C83.4254 65.26 83.7354 65.57 84.1154 65.57C84.4954 65.57 84.8054 65.26 84.8054 64.88C84.8054 64.5 84.4954 64.19 84.1154 64.19C83.7354 64.19 83.4254 64.5 83.4254 64.88Z" fill="#F55B5D"/>
<path d="M85.7254 62.19C86.1065 62.19 86.4154 61.8811 86.4154 61.5C86.4154 61.1189 86.1065 60.81 85.7254 60.81C85.3443 60.81 85.0354 61.1189 85.0354 61.5C85.0354 61.8811 85.3443 62.19 85.7254 62.19Z" fill="#F55B5D"/>
</svg>
